<svg width="136" height="24" viewBox="0 0 136 24" fill="none" xmlns="http://www.w3.org/2000/svg">
<path fill-rule="evenodd" clip-rule="evenodd" d="M36.5695 0.749878L25.06 23.2499H14.2493L19.066 13.9249H18.8499C14.8761 19.0834 8.94714 22.4793 0.499268 23.2499V14.054C0.499268 14.054 5.90358 13.7348 9.08062 10.3946H0.499268V0.750055H10.1438V8.68253L10.3602 8.68164L14.3014 0.750055H21.5953V8.63223L21.8116 8.63188L25.9006 0.749878H36.5695Z" fill="#6E6E6E"/>
<path d="M99.3323 20.7664H102.438V2.93738H99.3323V20.7664Z" fill="#6E6E6E"/>
<path fill-rule="evenodd" clip-rule="evenodd" d="M82.2085 20.5843C82.8835 20.8649 83.57 21.0053 84.2678 21.0053C85.4207 21.0053 86.4523 20.7247 87.3626 20.1633C88.2727 19.6021 88.9782 18.8284 89.4788 17.8423C89.9795 16.8487 90.2297 15.7222 90.2297 14.4631C90.2297 13.2039 89.9718 12.0776 89.4561 11.0839C88.9402 10.0903 88.2235 9.32037 87.3056 8.77423C86.3878 8.22052 85.3448 7.94746 84.1767 7.95503C83.4335 7.95503 82.7205 8.09916 82.0377 8.3874C81.3551 8.67563 80.7862 9.08523 80.3311 9.6162C80.296 9.65662 80.2618 9.69745 80.2287 9.73868V2.94882H77.1112V20.7664H80.206L80.1997 19.1019C80.2797 19.2001 80.3653 19.2959 80.4562 19.3897C80.9492 19.8979 81.5333 20.2961 82.2085 20.5843ZM85.3942 17.7058C84.886 18.0168 84.3057 18.1723 83.6533 18.1723C83.0086 18.1723 82.417 18.0129 81.8785 17.6944C81.3398 17.3682 80.9113 16.9246 80.5927 16.3632C80.2817 15.8019 80.1262 15.1647 80.1262 14.4517C80.1187 13.7387 80.2703 13.1016 80.5813 12.5403C80.9 11.9714 81.3285 11.5314 81.8671 11.2205C82.4056 10.9019 83.0011 10.7464 83.6533 10.754C84.3057 10.7464 84.886 10.8981 85.3942 11.2091C85.91 11.5125 86.3043 11.9486 86.5775 12.5175C86.8581 13.0788 86.9985 13.7236 86.9985 14.4517C86.9985 15.1799 86.8581 15.8247 86.5775 16.3859C86.3043 16.9473 85.91 17.3872 85.3942 17.7058Z" fill="#6E6E6E"/>
<path d="M41.0693 4.01831H44.6192L47.7947 15.6153L51.1728 4.01831H54.1311L57.7947 15.3825L60.844 4.01831H64.098L59.2966 20.7664H56.236L52.5105 9.66441L49.0907 20.7664H45.996L41.0693 4.01831Z" fill="#6E6E6E"/>
<path fill-rule="evenodd" clip-rule="evenodd" d="M69.3405 21.0621C68.104 21.0698 66.989 20.7966 65.9954 20.243C65.0093 19.6816 64.2319 18.9041 63.6629 17.9105C63.1017 16.9169 62.821 15.7829 62.821 14.5085C62.821 13.2721 63.1093 12.1534 63.6858 11.1521C64.2622 10.1509 65.0434 9.36962 66.0295 8.80832C67.0157 8.24702 68.1154 7.96637 69.329 7.96637C70.6944 7.96637 71.889 8.26977 72.913 8.87658C73.9447 9.48339 74.7145 10.3443 75.2228 11.4593C75.7385 12.5668 75.9244 13.8373 75.7803 15.2709H66.0344C66.0617 15.842 66.2042 16.3616 66.4619 16.8296C66.7502 17.3454 67.1522 17.7474 67.6679 18.0356C68.1838 18.3239 68.7602 18.468 69.3974 18.468C69.8828 18.4604 70.3342 18.377 70.7513 18.2178C71.1685 18.0509 71.5212 17.8271 71.8094 17.5464C72.1053 17.2658 72.3139 16.9473 72.4353 16.5908H75.6893C75.4921 17.463 75.0977 18.2405 74.506 18.9231C73.9143 19.5983 73.171 20.1254 72.2759 20.5046C71.3809 20.8839 70.4024 21.0698 69.3405 21.0621ZM66.4733 12.142C66.2915 12.459 66.1655 12.8003 66.0954 13.166H72.5558C72.5089 12.704 72.3663 12.283 72.128 11.9031C71.8549 11.4555 71.4833 11.1104 71.013 10.8677C70.5428 10.6174 70.0118 10.4922 69.4202 10.4922C68.7906 10.4922 68.2179 10.6363 67.702 10.9246C67.1863 11.2128 66.7767 11.6186 66.4733 12.142Z" fill="#6E6E6E"/>
<path d="M92.517 8.22808C92.517 7.21167 92.7483 6.30903 93.211 5.52017C93.6736 4.72373 94.3223 4.10553 95.1566 3.6656C95.9985 3.21807 96.9809 2.98672 98.1034 2.97156V5.73635C97.58 5.74393 97.1325 5.85392 96.7609 6.06631C96.3968 6.27111 96.1161 6.57072 95.9189 6.96515C95.7374 7.32827 95.6394 7.74925 95.625 8.22808H98.0352V10.8563H95.6232V20.7664H92.517V10.8563H90.5145V8.22808H92.517Z" fill="#6E6E6E"/>
<path fill-rule="evenodd" clip-rule="evenodd" d="M110.334 21.0393C109.067 21.0393 107.933 20.7625 106.932 20.2088C105.938 19.6475 105.157 18.8738 104.588 17.8877C104.027 16.8941 103.746 15.7677 103.746 14.5085C103.746 13.2418 104.027 12.1116 104.588 11.118C105.157 10.1167 105.938 9.33923 106.932 8.78551C107.933 8.23179 109.067 7.95493 110.334 7.95493C111.608 7.95493 112.746 8.23179 113.747 8.78551C114.756 9.33923 115.541 10.1129 116.103 11.1066C116.664 12.1002 116.948 13.2342 116.956 14.5085C116.948 15.7677 116.664 16.8941 116.103 17.8877C115.549 18.8738 114.768 19.6475 113.759 20.2088C112.75 20.7625 111.608 21.0393 110.334 21.0393ZM110.334 18.1836C111.002 18.1836 111.593 18.0318 112.109 17.7285C112.625 17.4175 113.023 16.9851 113.304 16.4313C113.584 15.8701 113.725 15.2291 113.725 14.5085C113.725 13.7803 113.584 13.1356 113.304 12.5743C113.023 12.013 112.625 11.5807 112.109 11.2772C111.593 10.9663 111.002 10.8108 110.334 10.8108C109.674 10.8108 109.086 10.9663 108.57 11.2772C108.062 11.5807 107.668 12.013 107.387 12.5743C107.107 13.1356 106.97 13.7803 106.978 14.5085C106.978 15.2291 107.118 15.8701 107.399 16.4313C107.687 16.9851 108.081 17.4175 108.582 17.7285C109.09 18.0318 109.674 18.1836 110.334 18.1836Z" fill="#6E6E6E"/>
<path d="M120.312 8.22806H116.854L120.597 20.7664H123.623L126.085 12.7581L128.743 20.7664H131.724L135.479 8.22806H132.35L130.22 16.0324L127.867 8.22806H124.841L122.499 16.2043L120.312 8.22806Z" fill="#6E6E6E"/>
</svg>
