<svg width="136" height="24" viewBox="0 0 136 24" fill="none" xmlns="http://www.w3.org/2000/svg">
<path d="M11.2827 3.45332C11.5131 2.98638 11.6284 2.75291 11.7848 2.67831C11.9209 2.61341 12.0791 2.61341 12.2152 2.67831C12.3717 2.75291 12.4869 2.98638 12.7174 3.45332L14.9041 7.88328C14.9721 8.02113 15.0061 8.09006 15.0558 8.14358C15.0999 8.19096 15.1527 8.22935 15.2113 8.25662C15.2776 8.28742 15.3536 8.29854 15.5057 8.32077L20.397 9.03571C20.9121 9.11099 21.1696 9.14863 21.2888 9.27444C21.3925 9.38389 21.4412 9.5343 21.4215 9.68377C21.3988 9.85558 21.2124 10.0372 20.8395 10.4004L17.3014 13.8464C17.1912 13.9538 17.136 14.0076 17.1004 14.0715C17.0689 14.128 17.0487 14.1902 17.0409 14.2545C17.0321 14.3271 17.0451 14.403 17.0711 14.5547L17.906 19.4221C17.994 19.9355 18.038 20.1922 17.9553 20.3445C17.8833 20.477 17.7554 20.57 17.6071 20.5975C17.4366 20.6291 17.2061 20.5078 16.7451 20.2654L12.3724 17.9658C12.2361 17.8942 12.168 17.8584 12.0962 17.8443C12.0327 17.8318 11.9673 17.8318 11.9038 17.8443C11.832 17.8584 11.7639 17.8942 11.6277 17.9658L7.25492 20.2654C6.79392 20.5078 6.56341 20.6291 6.39297 20.5975C6.24468 20.57 6.11672 20.477 6.04474 20.3445C5.962 20.1922 6.00603 19.9355 6.09407 19.4221L6.92889 14.5547C6.95491 14.403 6.96793 14.3271 6.95912 14.2545C6.95132 14.1902 6.93111 14.128 6.89961 14.0715C6.86402 14.0076 6.80888 13.9538 6.69859 13.8464L3.16056 10.4004C2.78766 10.0372 2.60121 9.85558 2.57853 9.68377C2.55879 9.5343 2.60755 9.38389 2.71125 9.27444C2.83044 9.14863 3.08797 9.11099 3.60304 9.03571L8.49431 8.32077C8.64642 8.29854 8.72248 8.28742 8.78872 8.25662C8.84736 8.22935 8.90016 8.19096 8.94419 8.14358C8.99391 8.09006 9.02793 8.02113 9.09597 7.88328L11.2827 3.45332Z" fill="#FCCA1A" stroke="#FCCA1A" stroke-width="2" stroke-linecap="round" stroke-linejoin="round"/>
<path d="M39.2827 3.45332C39.5131 2.98638 39.6284 2.75291 39.7848 2.67831C39.9209 2.61341 40.0791 2.61341 40.2152 2.67831C40.3717 2.75291 40.4869 2.98638 40.7174 3.45332L42.9041 7.88328C42.9721 8.02113 43.0061 8.09006 43.0558 8.14358C43.0999 8.19096 43.1527 8.22935 43.2113 8.25662C43.2776 8.28742 43.3536 8.29854 43.5057 8.32077L48.397 9.03571C48.9121 9.11099 49.1696 9.14863 49.2888 9.27444C49.3925 9.38389 49.4412 9.5343 49.4215 9.68377C49.3988 9.85558 49.2124 10.0372 48.8395 10.4004L45.3014 13.8464C45.1912 13.9538 45.136 14.0076 45.1004 14.0715C45.0689 14.128 45.0487 14.1902 45.0409 14.2545C45.0321 14.3271 45.0451 14.403 45.0711 14.5547L45.906 19.4221C45.994 19.9355 46.038 20.1922 45.9553 20.3445C45.8833 20.477 45.7554 20.57 45.6071 20.5975C45.4366 20.6291 45.2061 20.5078 44.7451 20.2654L40.3724 17.9658C40.2361 17.8942 40.168 17.8584 40.0962 17.8443C40.0327 17.8318 39.9673 17.8318 39.9038 17.8443C39.832 17.8584 39.7639 17.8942 39.6277 17.9658L35.2549 20.2654C34.7939 20.5078 34.5634 20.6291 34.393 20.5975C34.2447 20.57 34.1167 20.477 34.0447 20.3445C33.962 20.1922 34.006 19.9355 34.0941 19.4221L34.9289 14.5547C34.9549 14.403 34.9679 14.3271 34.9591 14.2545C34.9513 14.1902 34.9311 14.128 34.8996 14.0715C34.864 14.0076 34.8089 13.9538 34.6986 13.8464L31.1606 10.4004C30.7877 10.0372 30.6012 9.85558 30.5785 9.68377C30.5588 9.5343 30.6076 9.38389 30.7113 9.27444C30.8304 9.14863 31.088 9.11099 31.603 9.03571L36.4943 8.32077C36.6464 8.29854 36.7225 8.28742 36.7887 8.25662C36.8474 8.22935 36.9002 8.19096 36.9442 8.14358C36.9939 8.09006 37.0279 8.02113 37.096 7.88328L39.2827 3.45332Z" fill="#FCCA1A" stroke="#FCCA1A" stroke-width="2" stroke-linecap="round" stroke-linejoin="round"/>
<path d="M67.2827 3.45332C67.5131 2.98638 67.6284 2.75291 67.7848 2.67831C67.9209 2.61341 68.0791 2.61341 68.2152 2.67831C68.3717 2.75291 68.4869 2.98638 68.7174 3.45332L70.9041 7.88328C70.9721 8.02113 71.0061 8.09006 71.0558 8.14358C71.0999 8.19096 71.1527 8.22935 71.2113 8.25662C71.2776 8.28742 71.3536 8.29854 71.5057 8.32077L76.397 9.03571C76.9121 9.11099 77.1696 9.14863 77.2888 9.27444C77.3925 9.38389 77.4412 9.5343 77.4215 9.68377C77.3988 9.85558 77.2124 10.0372 76.8395 10.4004L73.3014 13.8464C73.1912 13.9538 73.136 14.0076 73.1004 14.0715C73.0689 14.128 73.0487 14.1902 73.0409 14.2545C73.0321 14.3271 73.0451 14.403 73.0711 14.5547L73.906 19.4221C73.994 19.9355 74.038 20.1922 73.9553 20.3445C73.8833 20.477 73.7554 20.57 73.6071 20.5975C73.4366 20.6291 73.2061 20.5078 72.7451 20.2654L68.3724 17.9658C68.2361 17.8942 68.168 17.8584 68.0962 17.8443C68.0327 17.8318 67.9673 17.8318 67.9038 17.8443C67.832 17.8584 67.7639 17.8942 67.6277 17.9658L63.2549 20.2654C62.7939 20.5078 62.5634 20.6291 62.393 20.5975C62.2447 20.57 62.1167 20.477 62.0447 20.3445C61.962 20.1922 62.006 19.9355 62.0941 19.4221L62.9289 14.5547C62.9549 14.403 62.9679 14.3271 62.9591 14.2545C62.9513 14.1902 62.9311 14.128 62.8996 14.0715C62.864 14.0076 62.8089 13.9538 62.6986 13.8464L59.1606 10.4004C58.7877 10.0372 58.6012 9.85558 58.5785 9.68377C58.5588 9.5343 58.6076 9.38389 58.7113 9.27444C58.8304 9.14863 59.088 9.11099 59.603 9.03571L64.4943 8.32077C64.6464 8.29854 64.7225 8.28742 64.7887 8.25662C64.8474 8.22935 64.9002 8.19096 64.9442 8.14358C64.9939 8.09006 65.0279 8.02113 65.096 7.88328L67.2827 3.45332Z" fill="#FCCA1A" stroke="#FCCA1A" stroke-width="2" stroke-linecap="round" stroke-linejoin="round"/>
<path d="M95.2827 3.45332C95.5131 2.98638 95.6284 2.75291 95.7848 2.67831C95.9209 2.61341 96.0791 2.61341 96.2152 2.67831C96.3717 2.75291 96.4869 2.98638 96.7174 3.45332L98.9041 7.88328C98.9721 8.02113 99.0061 8.09006 99.0558 8.14358C99.0999 8.19096 99.1527 8.22935 99.2113 8.25662C99.2776 8.28742 99.3536 8.29854 99.5057 8.32077L104.397 9.03571C104.912 9.11099 105.17 9.14863 105.289 9.27444C105.392 9.38389 105.441 9.5343 105.422 9.68377C105.399 9.85558 105.212 10.0372 104.839 10.4004L101.301 13.8464C101.191 13.9538 101.136 14.0076 101.1 14.0715C101.069 14.128 101.049 14.1902 101.041 14.2545C101.032 14.3271 101.045 14.403 101.071 14.5547L101.906 19.4221C101.994 19.9355 102.038 20.1922 101.955 20.3445C101.883 20.477 101.755 20.57 101.607 20.5975C101.437 20.6291 101.206 20.5078 100.745 20.2654L96.3724 17.9658C96.2361 17.8942 96.168 17.8584 96.0962 17.8443C96.0327 17.8318 95.9673 17.8318 95.9038 17.8443C95.832 17.8584 95.7639 17.8942 95.6277 17.9658L91.2549 20.2654C90.7939 20.5078 90.5634 20.6291 90.393 20.5975C90.2447 20.57 90.1167 20.477 90.0447 20.3445C89.962 20.1922 90.006 19.9355 90.0941 19.4221L90.9289 14.5547C90.9549 14.403 90.9679 14.3271 90.9591 14.2545C90.9513 14.1902 90.9311 14.128 90.8996 14.0715C90.864 14.0076 90.8089 13.9538 90.6986 13.8464L87.1606 10.4004C86.7877 10.0372 86.6012 9.85558 86.5785 9.68377C86.5588 9.5343 86.6076 9.38389 86.7113 9.27444C86.8304 9.14863 87.088 9.11099 87.603 9.03571L92.4943 8.32077C92.6464 8.29854 92.7225 8.28742 92.7887 8.25662C92.8474 8.22935 92.9002 8.19096 92.9442 8.14358C92.9939 8.09006 93.0279 8.02113 93.096 7.88328L95.2827 3.45332Z" fill="#FCCA1A" stroke="#FCCA1A" stroke-width="2" stroke-linecap="round" stroke-linejoin="round"/>
<path d="M123.283 3.45332C123.513 2.98638 123.628 2.75291 123.785 2.67831C123.921 2.61341 124.079 2.61341 124.215 2.67831C124.372 2.75291 124.487 2.98638 124.717 3.45332L126.904 7.88328C126.972 8.02113 127.006 8.09006 127.056 8.14358C127.1 8.19096 127.153 8.22935 127.211 8.25662C127.278 8.28742 127.354 8.29854 127.506 8.32077L132.397 9.03571C132.912 9.11099 133.17 9.14863 133.289 9.27444C133.392 9.38389 133.441 9.5343 133.422 9.68377C133.399 9.85558 133.212 10.0372 132.839 10.4004L129.301 13.8464C129.191 13.9538 129.136 14.0076 129.1 14.0715C129.069 14.128 129.049 14.1902 129.041 14.2545C129.032 14.3271 129.045 14.403 129.071 14.5547L129.906 19.4221C129.994 19.9355 130.038 20.1922 129.955 20.3445C129.883 20.477 129.755 20.57 129.607 20.5975C129.437 20.6291 129.206 20.5078 128.745 20.2654L124.372 17.9658C124.236 17.8942 124.168 17.8584 124.096 17.8443C124.033 17.8318 123.967 17.8318 123.904 17.8443C123.832 17.8584 123.764 17.8942 123.628 17.9658L119.255 20.2654C118.794 20.5078 118.563 20.6291 118.393 20.5975C118.245 20.57 118.117 20.477 118.045 20.3445C117.962 20.1922 118.006 19.9355 118.094 19.4221L118.929 14.5547C118.955 14.403 118.968 14.3271 118.959 14.2545C118.951 14.1902 118.931 14.128 118.9 14.0715C118.864 14.0076 118.809 13.9538 118.699 13.8464L115.161 10.4004C114.788 10.0372 114.601 9.85558 114.579 9.68377C114.559 9.5343 114.608 9.38389 114.711 9.27444C114.83 9.14863 115.088 9.11099 115.603 9.03571L120.494 8.32077C120.646 8.29854 120.722 8.28742 120.789 8.25662C120.847 8.22935 120.9 8.19096 120.944 8.14358C120.994 8.09006 121.028 8.02113 121.096 7.88328L123.283 3.45332Z" fill="#FCCA1A" stroke="#FCCA1A" stroke-width="2" stroke-linecap="round" stroke-linejoin="round"/>
</svg>
